<?xml version="1.0" encoding="UTF-8"?>
<svg viewBox="0 0 412.66 370.8" xmlns="http://www.w3.org/2000/svg">
 <path d="m377.4 9.7156c17.976 10.545 14.235 35.788 12.169 49.534-1.7979 11.955 0.44968 11.378 2.6485 23.836 2.8177 15.983-9.3332 12.521-14.675 21.975-9.3304 16.516 6.2571 47.446 11.31 63.85 5.354 17.384 6.2884 35.204-3.0062 49.677-12.393 19.297-32.888 35.998-47.602 54.115-11.173 13.759-19.802 29.503-29.134 42.948-19.097 27.514-53.535 41.356-85.395 25.913-42.794-20.747-7.3468-74.242 9.4353-96.536 16.759-22.262 33.25-52.162 35.376-82.63 0.92883-13.32 0.1131-26.719 1.2589-40.018 0.98306-11.403-6.2286-6.6378-13.501-12.092-8.2821-6.2138-4.5668-12.486-4.4371-20.114 0.31267-18.608-11.181-43.362 0.2869-60.843 13.609-20.747 64.263-22.399 87.613-22.333 12.452 0.034026 25.716 1.7813 37.652 2.7184"/>
 <path d="m378.26 19.451c10.09 19.341-0.91501 32.874 0.85983 52.111 0.46902 5.08 6.8061 12.68 5.2979 17.895-3.3814 11.689-31.844 13.452-42.519 14.173-20.997 1.4162-50.222 7.6365-70.72 3.5782-17.151-3.3943-10.901-10.362-11.023-24.051-0.11774-13.104-8.6454-26.725-6.8723-39.511 3.8477-27.723 54.757-27.607 76.733-28.13 14.438-0.34578 35.335-4.0978 48.245 3.935" fill="#d0d68f"/>
 <path d="m375.54 22.886c0.82581 25.659-42.522 11.8-54.83 19.756-10.794 6.9781 2.5712 36.76 2.5768 50.25-8.8946-9.4629-1.2553-57.409-23.766-48.818-8.5028 3.2444-3.604 11.778-1.7169 22.047 1.7721 9.6367 4.3976 19.044 4.8666 28.918-9.1318-10.234-7.746-36.49-11.74-49.533-9.1888 0.206-30.956 0.67592-27.2-13.028 2.8352-10.34 25.704-7.4599 5.8708 3.4357 16.358 8.2545 43.174 0.54533 61.272-1.4318 13.282-1.4512 24.614 0.012878 36.364-7.5868-16.008 1.1081-1.2939-16.056 8.3032-4.0086"/>
 <path d="m330.16 33.194c-10.464-9.6422 0.15268-19.43 0 0"/>
 <path d="m172.83 32.478c5.3384 11.137-1.4778 26.149 1.7178 38.94 2.7359 10.947 10.865 22.451 7.1574 33.929-2.6531 8.215-13.416 10.416-16.034 17.824-2.7423 7.7625 6.6166 21.252 8.7327 28.847 4.7618 17.084 5.0947 37.726 3.1488 55.259-1.8236 16.433-13.324 23.463-24.194 33.644-16.387 15.347-26.16 32.952-36.219 50.534-12.059 21.077-27.583 47.668-59.412 51.968-20.301 2.7405-46.158-21.734-44.236-40.943 2.7202-27.172 10.243-36.752 23.622-59.126 11.543-19.305 17.59-35.97 20.829-58.625 1.7923-12.534 5.698-23.819 5.6547-37.293-0.075409-23.99-6.1044-10.647-17.751-22.047-10.612-10.385-0.72374-41.703-1.2884-55.259-1.0603-25.475-6.9808-42.698 25.625-43.663 21.206-0.6281 42.968-3.0072 64.136-3.0072 10.606 0 23.44-5.6134 32.928 1.7178 2.5336 1.9579 4.3664 4.3608 5.5821 7.3008"/>
 <path d="m345.91 26.895c-5.0404 0.79363-7.8296-8.9332 0 0"/>
 <path d="m301.24 33.766c-2.1271-4.325-3.593-7.2264-1.2866-10.88 3.3318 4.2661 2.494 7.0259 1.2866 10.88"/>
 <path d="m313.7 24.176c0.63638 3.0724 2.0728 4.336 0.57291 6.8714-4.3626-4.828-2.0664-5.1876-0.57291-6.8714"/>
 <path d="m165.96 36.63c1.8917 7.1877-2.2954 17.818-1.4309 26.342 1.1596 11.446 6.3389 21.56 9.3764 32.496 5.3945 19.421-43.951 21.95-58.338 21.618-15.941-0.36784-29.07-1.7841-44.523 4.0086-21.198 7.9464-21.043-8.0494-20.186-23.622 0.86168-15.625-8.5957-55.648 6.8723-62.847 12.771-5.9435 42.166-0.17013 56.836-1.4318 12.472-1.0732 45.051-11.536 51.393 3.4357" fill="#9979b5"/>
 <path d="m158.37 39.35c-4.1842 8.4163-16.686 10.703-25.34 12.168-9.7571 1.6516-21.181 1.9579-31.066 2.2908-10.944 0.36692-26.982 3.1718-37.723 0.71546-12.804-2.9281-14.327-16.495-3.9369-15.175-2.2862-0.2906-1.0244 6.7666 4.0086 8.3032 8.5984 2.6255 9.9448-3.0311 10.88-8.3032-1.6526 14.425 20.034 10.189 15.748-3.4366h2.8637c-5.7062 18.708 19.872 8.4136 28.775 8.1607-0.80283-2.0379-1.053-5.6464-2.0057-8.1607h2.0057c0.92054 12.641 13.229 9.9181 22.047 5.4405 5.3439-2.7129 14.49-15.407 13.743-2.0038"/>
 <path d="m137.04 35.198c-0.14804 3.3318 1.8466 4.7599-1.4318 6.1559-1.1799-3.1929 1.453-6.4879 1.4318-6.1559"/>
 <path d="m338.32 51.661c3.123 7.1969 5.3108 26.927 4.8657 37.079-3.3658-3.3768-5.8626-13.06-6.7279-19.542-1.2341-9.2578-3.4982-16.556-5.0092-25.697 1.8733 1.9432 5.2382 5.3761 6.8714 8.1598"/>
 <path d="m356.93 46.078c4.0518 5.4662 8.3345 36.878 6.155 42.09-5.8801-14.308-5.3936-29.774-9.5916-44.094 1.6507 0.21151 2.2871 1.3114 3.4366 2.0038"/>
 <path d="m275.19 53.093c-2.4719 7.047 2.8159 20.118 3.8651 28.06 0.77249 5.8414 1.2488 11.525 2.2917 17.322-7.436-4.897-3.8265-12.42-5.011-20.329-1.7776-11.875-4.8105-18.815-3.8651-31.208 3.7005 1.0898 2.3469 2.894 2.7193 6.155"/>
 <path d="m374.83 57.818c1.865 4.8832 1.7454 10.001-1.4309 13.171-0.90582-6.7564-0.05426-13.52-2.0057-20.042 2.7616 1.3509 2.5381 3.5801 3.4366 6.8714"/>
 <path d="m60.018 56.53c2.4572 14.231 8.557 37.65 2.8637 50.822-3.5414-5.6455 0.80926-9.4564 0.286-16.75-0.81938-11.431-10.904-24.22-3.1497-34.072"/>
 <path d="m101.96 66.837c-0.65937 8.6674-0.045067 18.055 3.0072 26.198 1.132 3.0228 6.1559 19.671 0 12.169-9.1851-11.194-1.9661-34.328-9.1622-46.671 4.0711 1.2801 4.5208 4.165 6.155 8.3032"/>
 <path d="m84.069 92.176c1.4815 4.2661 2.1933 8.8219 3.4357 13.171-7.1059-0.58763-12.459-38.757-8.8762-45.381 3.204 10.534 2.7414 21.595 5.4405 32.21"/>
 <path d="m126.59 69.414c1.8567 10.275 4.4758 26.136 4.2946 33.785-11.401-7.4415-4.4326-29.345-8.3032-41.23 5.4496 0.60603 3.6288 3.3649 4.0086 7.4452"/>
 <path d="m148.78 72.277c1.9202 7.2024 5.3191 23.012 2.7202 28.918-5.2363-11.114-5.3025-25.954-8.3023-39.226 3.3014 2.9419 4.245 6.144 5.5821 10.308"/>
 <path d="m369.96 134.12c2.391 6.864 4.9981 15.669 6.8732 23.335-21.361 1.5634-34.451 26.108-31.352 45.81 1.8539 11.792 19.507 25.907 12.885 33.358-22.741 25.586-37.347 60.166-61.272 81.743-9.9917-31.637-49.05-42.459-78.309-40.657 17.453-32.496 44.457-56.551 53.398-98.994 2.2825-10.835 4.5006-22.426 3.7925-34.359-0.15631-2.6614-1.1532-16.491 0.35959-21.117 2.9253-8.9497 0.6713-7.8177 13.633-8.7272 11.221-0.78719 22.448-1.5422 33.673-2.2908 13.552-0.90307 34.137 0.085518 45.032-4.8721 1.4374 8.4375 1.0456 17.96 1.2875 26.771" fill="#e0ea75"/>
 <path d="m158.37 119.09c1.5836 12.381 5.1572 23.605 8.3032 33.786 4.6726 15.126-0.73753 12.366-15.103 18.755-32.208 14.322-20.694 48.171-6.2267 66.999-23.252 14.657-24.634 47.979-44.667 65.281-17.809-23.013-44.244-33.63-73.585-32.356 8.5662-17.917 21.694-31.752 30.636-52.253 6.4805-14.857 8.5396-31.36 11.024-46.671 0.78536-4.8381 1.1569-13.29 1.7178-19.47 1.4355-15.813-7.505-22.511 10.164-27.772 13.89-4.1355 30.262 0.41568 44.381-0.14254 11.573-0.45705 21.798-5.3687 33.356-6.1559" fill="#9d92e8"/>
 <path d="m385.85 184.94c0.27127 14.725-4.4353 34.387-21.33 44.666-8.3538-12.483-16.787-25.812-11.882-44.094 2.1372-7.9703 5.2179-17.913 14.315-21.043 15.373-5.2878 14.375 8.7502 18.898 20.471" fill="#4c8ce0"/>
 <g fill="#fc9453">
  <path d="m170.68 178.07c0.79639 23.918-1.556 41.401-21.33 57.122-9.1888-10.422-21.588-30.947-10.952-44.382 3.1276-3.9516 34.56-32.462 32.281-12.74"/>
  <path d="m44.985 277.14c14.318 3.1111 49.481 11.092 51.682 28.631 2.1133 16.839-36.519 33.249-52.111 27.916-24.661-8.4347-38.155-70.708 0.42947-56.547"/>
 </g>
 <path d="m288.79 310.78c20.232 27.353-63.26 43.569-73.942 11.526-2.9032-8.7106-7.1988-32.832 1.075-39.154 18.988-14.512 62.299 12.464 72.867 27.628" fill="#4c8ce0"/>
</svg>
